<svg xmlns="http://www.w3.org/2000/svg" width="199.898" height="24.609" viewBox="0 0 199.898 24.609"><path d="M-75.2-24.609l-.861,7.031H-90.123l-.211,1.758h14.063l-.879,7.031H-91.213L-92.285,0h-7.031l3.023-24.609ZM-69.434,0h-7.031l3.023-24.609h7.031Zm4.781-24.609h7.031L-59.783-7.031h14.063L-46.582,0H-67.676ZM-36.932-7.031h14.063L-23.73,0H-44.824L-41.8-24.609h21.094l-.861,7.031H-35.631l-.211,1.758h14.063l-.879,7.031H-36.721ZM9.176-24.609l-.861,7.031H-5.748l-1.3,10.547H7.014L6.152,0H-14.941l3.023-24.609Zm1.758,0H32.027L29,0H21.973l.65-5.273H15.592L14.941,0H7.91Zm6.17,7.031-.65,5.273h7.031l.65-5.273Zm37.775-7.031L52.928-8.789H48.955L52.945,0H44.824l-3.99-8.789H38.865L37.793,0H30.762l3.023-24.609Zm-7.893,7.031H39.955l-.211,1.758h7.031ZM77.73-24.609l-.861,7.031H62.807l-1.3,10.547h7.031l.211-1.758H63.475l.879-7.031h12.3L74.707,0H53.613l3.023-24.609Zm1.758,0h21.094L97.559,0H76.465Zm6.17,7.031-1.3,10.547h7.031l1.3-10.547Z" transform="translate(99.316 24.609)" fill="#fff"/></svg>